<svg height="202" viewBox="-.5 -.5 202 202" width="202" xmlns="http://www.w3.org/2000/svg"><g fill="none" pointer-events="stroke" stroke="#000" stroke-miterlimit="10"><path d="m0 200v-200"/><path d="m40 200v-200"/><path d="m80 200v-200"/><path d="m120 200v-200"/><path d="m160 200v-200"/><path d="m200 0h-200"/><path d="m200 200v-200"/><path d="m200 40h-200"/><path d="m200 80h-200"/><path d="m200 120h-200"/><path d="m200 160h-200"/><path d="m200 200h-200"/></g><g stroke="#d79b00"><g fill="none" pointer-events="stroke" stroke-miterlimit="10"><path d="m60 50v-30"/><path d="m20 20h40"/><path d="m100 90v-70"/><path d="m100 20h40"/><path d="m140 20h40"/><path d="m180 50v-30"/><path d="m20 50v-30"/></g><ellipse cx="20" cy="20" fill="#ffe6cc" pointer-events="all" rx="10" ry="10"/><ellipse cx="60" cy="20" fill="#ffe6cc" pointer-events="all" rx="10" ry="10"/><ellipse cx="100" cy="20" fill="#ffe6cc" pointer-events="all" rx="10" ry="10"/><path d="m70 20h20" fill="none" pointer-events="stroke" stroke-miterlimit="10"/><ellipse cx="140" cy="20" fill="#ffe6cc" pointer-events="all" rx="10" ry="10"/><path d="m140 50v-20" fill="none" pointer-events="stroke" stroke-miterlimit="10"/><ellipse cx="180" cy="20" fill="#ffe6cc" pointer-events="all" rx="10" ry="10"/><ellipse cx="20" cy="60" fill="#ffe6cc" pointer-events="all" rx="10" ry="10"/><path d="m20 90v-20" fill="none" pointer-events="stroke" stroke-miterlimit="10"/><ellipse cx="20" cy="100" fill="#ffe6cc" pointer-events="all" rx="10" ry="10"/><path d="m20 170v-60" fill="none" pointer-events="stroke" stroke-miterlimit="10"/><ellipse cx="20" cy="140" fill="#ffe6cc" pointer-events="all" rx="10" ry="10"/><ellipse cx="20" cy="180" fill="#ffe6cc" pointer-events="all" rx="10" ry="10"/><ellipse cx="60" cy="60" fill="#ffe6cc" pointer-events="all" rx="10" ry="10"/><path d="m60 180v-110" fill="none" pointer-events="stroke" stroke-miterlimit="10"/><g fill="#ffe6cc" pointer-events="all"><ellipse cx="60" cy="100" rx="10" ry="10"/><ellipse cx="60" cy="140" rx="10" ry="10"/><ellipse cx="60" cy="180" rx="10" ry="10"/><ellipse cx="100" cy="60" rx="10" ry="10"/><ellipse cx="100" cy="100" rx="10" ry="10"/></g><path d="m100 130v-20" fill="none" pointer-events="stroke" stroke-miterlimit="10"/><ellipse cx="100" cy="140" fill="#ffe6cc" pointer-events="all" rx="10" ry="10"/><path d="m100 180v-30" fill="none" pointer-events="stroke" stroke-miterlimit="10"/><ellipse cx="100" cy="180" fill="#ffe6cc" pointer-events="all" rx="10" ry="10"/><ellipse cx="140" cy="60" fill="#ffe6cc" pointer-events="all" rx="10" ry="10"/><path d="m140 130v-60" fill="none" pointer-events="stroke" stroke-miterlimit="10"/><ellipse cx="140" cy="100" fill="#ffe6cc" pointer-events="all" rx="10" ry="10"/><ellipse cx="140" cy="140" fill="#ffe6cc" pointer-events="all" rx="10" ry="10"/><path d="m140 180v-30" fill="none" pointer-events="stroke" stroke-miterlimit="10"/><ellipse cx="140" cy="180" fill="#ffe6cc" pointer-events="all" rx="10" ry="10"/><ellipse cx="180" cy="60" fill="#ffe6cc" pointer-events="all" rx="10" ry="10"/><path d="m180 130v-60" fill="none" pointer-events="stroke" stroke-miterlimit="10"/><ellipse cx="180" cy="100" fill="#ffe6cc" pointer-events="all" rx="10" ry="10"/><ellipse cx="180" cy="140" fill="#ffe6cc" pointer-events="all" rx="10" ry="10"/><path d="m180 170v-20" fill="none" pointer-events="stroke" stroke-miterlimit="10"/><ellipse cx="180" cy="180" fill="#ffe6cc" pointer-events="all" rx="10" ry="10"/></g></svg>