<svg height="202" viewBox="-.5 -.5 202 202" width="202" xmlns="http://www.w3.org/2000/svg"><g fill="none" pointer-events="stroke" stroke-miterlimit="10"><path d="m19.86 100v-30" stroke="#d79b00"/><path d="m59.86 50v-30" stroke="#d79b00"/><path d="m60 19.86h40" stroke="#d79b00"/><g stroke="#000"><path d="m0 200v-200"/><path d="m40 200v-200"/><path d="m80 200v-200"/><path d="m120 200v-200"/><path d="m160 200v-200"/><path d="m200 0h-200"/><path d="m200 200v-200"/><path d="m200 40h-200"/><path d="m200 80h-200"/><path d="m200 120h-200"/><path d="m200 160h-200"/><path d="m200 200h-200"/></g><path d="m20 20h40" stroke="#d79b00"/><path d="m20 50v-30" stroke="#d79b00"/></g><g pointer-events="all"><ellipse cx="20" cy="20" fill="#ffe6cc" rx="10" ry="10" stroke="#d79b00"/><ellipse cx="60" cy="20" fill="#ffe6cc" rx="10" ry="10" stroke="#d79b00"/><ellipse cx="20" cy="60" fill="#ffe6cc" rx="10" ry="10" stroke="#d79b00"/><ellipse cx="100" cy="180" fill="#f33" rx="15" ry="15" stroke="#000"/><ellipse cx="140" cy="140" fill="#f33" rx="15" ry="15" stroke="#000"/><ellipse cx="180" cy="100" fill="#f33" rx="15" ry="15" stroke="#000"/><ellipse cx="100" cy="20" fill="#f8cecc" rx="10" ry="10" stroke="#b85450"/><ellipse cx="60" cy="60" fill="#f8cecc" rx="10" ry="10" stroke="#b85450"/><ellipse cx="20" cy="100" fill="#f8cecc" rx="10" ry="10" stroke="#b85450"/></g></svg>